<svg xmlns="http://www.w3.org/2000/svg" viewBox="0 0 800 500" width="100%" height="100%" style="border-radius:16px;overflow:hidden;background:radial-gradient(ellipse at 30% 20%, #064e3b 0%, #022c22 40%, #021a14 100%);box-shadow:0 10px 30px rgba(0,0,0,0.45);">
  <defs>
    <linearGradient id="vo-card" x1="0" y1="0" x2="0" y2="1">
      <stop offset="0" stop-color="#0a3a2e"/>
      <stop offset="1" stop-color="#062018"/>
    </linearGradient>
    <linearGradient id="vo-card-head" x1="0" y1="0" x2="1" y2="0">
      <stop offset="0" stop-color="#10b981" stop-opacity="0.30"/>
      <stop offset="1" stop-color="#10b981" stop-opacity="0.02"/>
    </linearGradient>
    <radialGradient id="vo-hub" cx="0.5" cy="0.42" r="0.65">
      <stop offset="0" stop-color="#5eead4"/>
      <stop offset="0.45" stop-color="#10b981"/>
      <stop offset="1" stop-color="#065f46"/>
    </radialGradient>
    <radialGradient id="vo-hub-glow" cx="0.5" cy="0.5" r="0.5">
      <stop offset="0" stop-color="#34d399" stop-opacity="0.55"/>
      <stop offset="0.6" stop-color="#10b981" stop-opacity="0.12"/>
      <stop offset="1" stop-color="#10b981" stop-opacity="0"/>
    </radialGradient>
    <linearGradient id="vo-beam" x1="0" y1="0" x2="1" y2="0">
      <stop offset="0" stop-color="#34d399" stop-opacity="0"/>
      <stop offset="0.5" stop-color="#5eead4" stop-opacity="0.9"/>
      <stop offset="1" stop-color="#34d399" stop-opacity="0"/>
    </linearGradient>
    <linearGradient id="vo-bar" x1="0" y1="1" x2="0" y2="0">
      <stop offset="0" stop-color="#065f46"/>
      <stop offset="1" stop-color="#5eead4"/>
    </linearGradient>
    <linearGradient id="vo-avatar" x1="0" y1="0" x2="1" y2="1">
      <stop offset="0" stop-color="#34d399"/>
      <stop offset="1" stop-color="#0e7d63"/>
    </linearGradient>
    <filter id="vo-glow" x="-60%" y="-60%" width="220%" height="220%">
      <feGaussianBlur stdDeviation="3.2" result="b"/>
      <feMerge><feMergeNode in="b"/><feMergeNode in="SourceGraphic"/></feMerge>
    </filter>
    <filter id="vo-softglow" x="-80%" y="-80%" width="260%" height="260%">
      <feGaussianBlur stdDeviation="6" result="b"/>
      <feMerge><feMergeNode in="b"/><feMergeNode in="SourceGraphic"/></feMerge>
    </filter>
    <pattern id="vo-grid" width="40" height="40" patternUnits="userSpaceOnUse">
      <path d="M40 0H0V40" fill="none" stroke="#10b981" stroke-opacity="0.06" stroke-width="1"/>
    </pattern>

    <!-- packet glyphs -->
    <g id="vo-packet">
      <circle r="4.5" fill="#5eead4"/>
      <circle r="9" fill="#5eead4" opacity="0.18"/>
    </g>
    <g id="vo-packet-sm">
      <circle r="3" fill="#a7f3d0"/>
      <circle r="6.5" fill="#34d399" opacity="0.22"/>
    </g>

    <!-- connection paths: corner cards -> hub at 400,250 -->
    <path id="vo-path-tl" d="M255,120 C320,150 350,200 400,250" fill="none"/>
    <path id="vo-path-tr" d="M545,120 C480,150 450,200 400,250" fill="none"/>
    <path id="vo-path-bl" d="M255,380 C320,350 350,300 400,250" fill="none"/>
    <path id="vo-path-br" d="M545,380 C480,350 450,300 400,250" fill="none"/>
  </defs>

  <style>
    @keyframes vo-flow { to { stroke-dashoffset: -200; } }
    @keyframes vo-pulse { 0% { r:34; opacity:0.55; } 100% { r:96; opacity:0; } }
    @keyframes vo-float { 0%,100% { transform: translateY(0); } 50% { transform: translateY(-6px); } }
    @keyframes vo-float2 { 0%,100% { transform: translateY(0); } 50% { transform: translateY(-9px); } }
    @keyframes vo-blink { 0%,100% { opacity:1; } 50% { opacity:0.15; } }
    @keyframes vo-spin { to { transform: rotate(360deg); } }
    @keyframes vo-rise { 0% { transform: translateY(0); opacity:0; } 15% { opacity:0.8; } 100% { transform: translateY(-120px); opacity:0; } }
    @keyframes vo-typedot { 0%,60%,100% { opacity:0.25; } 30% { opacity:1; } }
    @keyframes vo-eq1 { 0%,100% { transform: scaleY(0.45); } 50% { transform: scaleY(1); } }
    @keyframes vo-eq2 { 0%,100% { transform: scaleY(1); } 50% { transform: scaleY(0.5); } }
    @keyframes vo-eq3 { 0%,100% { transform: scaleY(0.6); } 50% { transform: scaleY(0.9); } }
    @keyframes vo-scan { 0% { transform: translateY(0); } 100% { transform: translateY(500px); } }
    @keyframes vo-hubpulse { 0%,100% { transform: scale(1); } 50% { transform: scale(1.05); } }

    .vo-beamline { stroke:url(#vo-beam); stroke-width:2.4; fill:none; stroke-dasharray:10 14; animation: vo-flow 2.6s linear infinite; }
    .vo-card-g { animation: vo-float 6s ease-in-out infinite; }
    .vo-card-g2 { animation: vo-float2 7s ease-in-out infinite; }
    .vo-livedot { animation: vo-blink 1.1s ease-in-out infinite; }
    .vo-ring { fill:none; stroke:#5eead4; stroke-width:2; transform-box: fill-box; transform-origin:center; }
    .vo-bar-eq { transform-box: fill-box; transform-origin: bottom; }
    .vo-typed { animation: vo-typedot 1.4s ease-in-out infinite; }
    .vo-label { font-family: 'Segoe UI', Arial, sans-serif; font-weight:700; letter-spacing:1.5px; fill:#5eead4; }
    .vo-mut { font-family:'Segoe UI', Arial, sans-serif; fill:#7fd9bf; }
    .vo-wht { font-family:'Segoe UI', Arial, sans-serif; fill:#d8fbf0; }
  </style>

  <!-- background -->
  <rect width="800" height="500" fill="url(#vo-grid)"/>
  <g opacity="0.5">
    <rect x="-200" y="-40" width="1400" height="2" fill="#10b981" opacity="0.05" transform="rotate(18 400 250)"/>
    <rect x="-200" y="120" width="1400" height="2" fill="#10b981" opacity="0.05" transform="rotate(18 400 250)"/>
    <rect x="-200" y="280" width="1400" height="2" fill="#10b981" opacity="0.05" transform="rotate(18 400 250)"/>
    <rect x="-200" y="440" width="1400" height="2" fill="#10b981" opacity="0.05" transform="rotate(18 400 250)"/>
  </g>
  <g opacity="0.9">
    <rect width="800" height="60" fill="#5eead4" opacity="0.025" style="animation: vo-scan 9s linear infinite;"/>
  </g>

  <!-- floating particles -->
  <g fill="#5eead4">
    <circle cx="120" cy="430" r="1.8" opacity="0.6" style="animation: vo-rise 7s linear infinite;"/>
    <circle cx="240" cy="460" r="1.3" opacity="0.5" style="animation: vo-rise 9s linear infinite 1.2s;"/>
    <circle cx="380" cy="470" r="2" opacity="0.7" style="animation: vo-rise 6.5s linear infinite 2s;"/>
    <circle cx="520" cy="450" r="1.4" opacity="0.5" style="animation: vo-rise 8.5s linear infinite 0.6s;"/>
    <circle cx="650" cy="465" r="1.7" opacity="0.6" style="animation: vo-rise 7.6s linear infinite 3s;"/>
    <circle cx="700" cy="440" r="1.2" opacity="0.45" style="animation: vo-rise 10s linear infinite 1.8s;"/>
    <circle cx="60"  cy="455" r="1.5" opacity="0.5" style="animation: vo-rise 8s linear infinite 2.6s;"/>
  </g>

  <!-- ============ BEAMS ============ -->
  <g>
    <use href="#vo-path-tl" class="vo-beamline"/>
    <use href="#vo-path-tr" class="vo-beamline" style="animation-delay:-0.8s"/>
    <use href="#vo-path-bl" class="vo-beamline" style="animation-delay:-1.4s"/>
    <use href="#vo-path-br" class="vo-beamline" style="animation-delay:-2s"/>
  </g>
  <!-- traveling packets -->
  <g>
    <use href="#vo-packet"><animateMotion dur="3.2s" repeatCount="indefinite" keyPoints="0;1" keyTimes="0;1" calcMode="linear"><mpath href="#vo-path-tl"/></animateMotion><animate attributeName="opacity" values="0;1;1;0" dur="3.2s" repeatCount="indefinite"/></use>
    <use href="#vo-packet-sm"><animateMotion dur="3.2s" begin="1.6s" repeatCount="indefinite"><mpath href="#vo-path-tl"/></animateMotion><animate attributeName="opacity" values="0;1;1;0" dur="3.2s" begin="1.6s" repeatCount="indefinite"/></use>

    <use href="#vo-packet"><animateMotion dur="3.6s" repeatCount="indefinite"><mpath href="#vo-path-tr"/></animateMotion><animate attributeName="opacity" values="0;1;1;0" dur="3.6s" repeatCount="indefinite"/></use>
    <use href="#vo-packet-sm"><animateMotion dur="3.6s" begin="1.8s" repeatCount="indefinite"><mpath href="#vo-path-tr"/></animateMotion><animate attributeName="opacity" values="0;1;1;0" dur="3.6s" begin="1.8s" repeatCount="indefinite"/></use>

    <use href="#vo-packet"><animateMotion dur="3.4s" repeatCount="indefinite"><mpath href="#vo-path-bl"/></animateMotion><animate attributeName="opacity" values="0;1;1;0" dur="3.4s" repeatCount="indefinite"/></use>
    <use href="#vo-packet-sm"><animateMotion dur="3.4s" begin="1.7s" repeatCount="indefinite"><mpath href="#vo-path-bl"/></animateMotion><animate attributeName="opacity" values="0;1;1;0" dur="3.4s" begin="1.7s" repeatCount="indefinite"/></use>

    <use href="#vo-packet"><animateMotion dur="3.8s" repeatCount="indefinite"><mpath href="#vo-path-br"/></animateMotion><animate attributeName="opacity" values="0;1;1;0" dur="3.8s" repeatCount="indefinite"/></use>
    <use href="#vo-packet-sm"><animateMotion dur="3.8s" begin="1.9s" repeatCount="indefinite"><mpath href="#vo-path-br"/></animateMotion><animate attributeName="opacity" values="0;1;1;0" dur="3.8s" begin="1.9s" repeatCount="indefinite"/></use>
  </g>

  <!-- ============ TOP-LEFT: LIVE CALLS ============ -->
  <g class="vo-card-g" transform="translate(170,30)">
    <rect width="170" height="120" rx="14" fill="url(#vo-card)" stroke="#10b981" stroke-opacity="0.35"/>
    <rect width="170" height="26" rx="14" fill="url(#vo-card-head)"/>
    <rect y="14" width="170" height="12" fill="url(#vo-card-head)"/>
    <circle cx="16" cy="13" r="4" fill="#34d399" class="vo-livedot"/>
    <text x="28" y="17" class="vo-label" font-size="9">LIVE CALLS</text>
    <text x="150" y="17" class="vo-mut" font-size="8" text-anchor="end" opacity="0.7">3</text>

    <!-- caller 1: Talking (blinking live) -->
    <g transform="translate(12,34)">
      <circle cx="9" cy="9" r="9" fill="url(#vo-avatar)"/>
      <text x="9" y="12.5" class="vo-wht" font-size="9" font-weight="700" text-anchor="middle">A</text>
      <rect x="24" y="3" width="62" height="5" rx="2.5" fill="#0d4d3c"/>
      <rect x="24" y="11" width="40" height="4" rx="2" fill="#0a3a2d"/>
      <rect x="98" y="3.5" width="48" height="13" rx="6.5" fill="#10b981" fill-opacity="0.22" stroke="#34d399" stroke-opacity="0.5"/>
      <circle cx="106" cy="10" r="2.6" fill="#34d399" class="vo-livedot"/>
      <text x="113" y="13" class="vo-mut" font-size="7.5" fill="#a7f3d0">Talking</text>
    </g>
    <!-- caller 2: Ringing -->
    <g transform="translate(12,60)">
      <circle cx="9" cy="9" r="9" fill="url(#vo-avatar)" opacity="0.85"/>
      <text x="9" y="12.5" class="vo-wht" font-size="9" font-weight="700" text-anchor="middle">M</text>
      <rect x="24" y="3" width="55" height="5" rx="2.5" fill="#0d4d3c"/>
      <rect x="24" y="11" width="34" height="4" rx="2" fill="#0a3a2d"/>
      <rect x="98" y="3.5" width="48" height="13" rx="6.5" fill="#f59e0b" fill-opacity="0.16" stroke="#fbbf24" stroke-opacity="0.4"/>
      <circle cx="106" cy="10" r="2.6" fill="#fbbf24"/>
      <text x="113" y="13" font-family="Segoe UI,Arial" font-size="7.5" fill="#fcd34d">Ringing</text>
    </g>
    <!-- caller 3: Qualified -->
    <g transform="translate(12,86)">
      <circle cx="9" cy="9" r="9" fill="url(#vo-avatar)" opacity="0.7"/>
      <text x="9" y="12.5" class="vo-wht" font-size="9" font-weight="700" text-anchor="middle">S</text>
      <rect x="24" y="3" width="60" height="5" rx="2.5" fill="#0d4d3c"/>
      <rect x="24" y="11" width="38" height="4" rx="2" fill="#0a3a2d"/>
      <rect x="92" y="3.5" width="54" height="13" rx="6.5" fill="#34d399" fill-opacity="0.18" stroke="#5eead4" stroke-opacity="0.5"/>
      <circle cx="100" cy="10" r="2.6" fill="#5eead4"/>
      <text x="107" y="13" font-family="Segoe UI,Arial" font-size="7.5" fill="#a7f3d0">Qualified</text>
    </g>
  </g>

  <!-- ============ TOP-RIGHT: CALL TRANSCRIPT ============ -->
  <g class="vo-card-g2" transform="translate(460,30)" style="animation-delay:-1.5s">
    <rect width="170" height="120" rx="14" fill="url(#vo-card)" stroke="#10b981" stroke-opacity="0.35"/>
    <rect width="170" height="26" rx="14" fill="url(#vo-card-head)"/>
    <rect y="14" width="170" height="12" fill="url(#vo-card-head)"/>
    <path d="M11 9 h10 v7 h-5 l-3 3 v-3 h-2 z" fill="#34d399"/>
    <text x="28" y="17" class="vo-label" font-size="9">CALL TRANSCRIPT</text>

    <!-- caller bubble -->
    <g transform="translate(12,33)">
      <rect width="92" height="18" rx="9" fill="#0a3a2d"/>
      <rect x="8" y="6" width="62" height="3.5" rx="1.75" fill="#3f9c84"/>
      <rect x="8" y="11.5" width="42" height="3.5" rx="1.75" fill="#2c6f5c"/>
    </g>
    <!-- agent bubble (right aligned) -->
    <g transform="translate(58,55)">
      <rect width="100" height="18" rx="9" fill="#0d5f49"/>
      <rect x="8" y="6" width="74" height="3.5" rx="1.75" fill="#7fe6c9"/>
      <rect x="8" y="11.5" width="50" height="3.5" rx="1.75" fill="#52c5a5"/>
    </g>
    <!-- caller bubble 2 -->
    <g transform="translate(12,77)">
      <rect width="80" height="16" rx="8" fill="#0a3a2d"/>
      <rect x="8" y="5.5" width="54" height="3.2" rx="1.6" fill="#3f9c84"/>
    </g>
    <!-- typing dots (agent) -->
    <g transform="translate(58,98)">
      <rect width="40" height="15" rx="7.5" fill="#0d5f49"/>
      <circle cx="13" cy="7.5" r="2.4" fill="#a7f3d0" class="vo-typed"/>
      <circle cx="20" cy="7.5" r="2.4" fill="#a7f3d0" class="vo-typed" style="animation-delay:0.2s"/>
      <circle cx="27" cy="7.5" r="2.4" fill="#a7f3d0" class="vo-typed" style="animation-delay:0.4s"/>
    </g>
  </g>

  <!-- ============ BOTTOM-LEFT: QA SCORE ============ -->
  <g class="vo-card-g" transform="translate(170,330)" style="animation-delay:-3s">
    <rect width="170" height="120" rx="14" fill="url(#vo-card)" stroke="#10b981" stroke-opacity="0.35"/>
    <rect width="170" height="26" rx="14" fill="url(#vo-card-head)"/>
    <rect y="14" width="170" height="12" fill="url(#vo-card-head)"/>
    <path d="M16 8 l2.4 4.9 5.4 0.8 -3.9 3.8 0.9 5.4 -4.8 -2.5 -4.8 2.5 0.9 -5.4 -3.9 -3.8 5.4 -0.8 z" fill="#34d399" transform="translate(-2,0) scale(0.8)"/>
    <text x="28" y="17" class="vo-label" font-size="9">QA SCORE</text>

    <!-- big number -->
    <text x="14" y="74" font-family="Segoe UI,Arial" font-weight="800" font-size="40" fill="#5eead4" filter="url(#vo-glow)">96</text>
    <text x="58" y="74" font-family="Segoe UI,Arial" font-size="13" fill="#3f9c84">/100</text>
    <text x="14" y="88" class="vo-mut" font-size="7.5" opacity="0.8" letter-spacing="0.5">AVG · 1.2k calls</text>

    <!-- labeled equalizer bars -->
    <g transform="translate(96,40)">
      <text x="0" y="6" class="vo-mut" font-size="7">Script</text>
      <rect x="0" y="9" width="60" height="5" rx="2.5" fill="#0a3a2d"/>
      <rect x="0" y="9" width="56" height="5" rx="2.5" fill="url(#vo-bar)" class="vo-bar-eq" style="transform-origin:left; animation: vo-eq3 2.2s ease-in-out infinite; transform-box:fill-box;"/>

      <text x="0" y="26" class="vo-mut" font-size="7">Sentiment</text>
      <rect x="0" y="29" width="60" height="5" rx="2.5" fill="#0a3a2d"/>
      <rect x="0" y="29" width="60" height="5" rx="2.5" fill="url(#vo-bar)" class="vo-bar-eq" style="transform-origin:left; animation: vo-eq2 1.9s ease-in-out infinite; transform-box:fill-box;"/>

      <text x="0" y="46" class="vo-mut" font-size="7">Compliance</text>
      <rect x="0" y="49" width="60" height="5" rx="2.5" fill="#0a3a2d"/>
      <rect x="0" y="49" width="58" height="5" rx="2.5" fill="url(#vo-bar)" class="vo-bar-eq" style="transform-origin:left; animation: vo-eq1 2.5s ease-in-out infinite; transform-box:fill-box;"/>
    </g>
    <!-- mini vertical equalizer -->
    <g transform="translate(14,96)">
      <rect x="0"  y="-14" width="5" height="14" rx="2" fill="url(#vo-bar)" class="vo-bar-eq" style="animation: vo-eq1 0.9s ease-in-out infinite;"/>
      <rect x="8"  y="-14" width="5" height="14" rx="2" fill="url(#vo-bar)" class="vo-bar-eq" style="animation: vo-eq2 0.9s ease-in-out infinite;"/>
      <rect x="16" y="-14" width="5" height="14" rx="2" fill="url(#vo-bar)" class="vo-bar-eq" style="animation: vo-eq3 0.9s ease-in-out infinite;"/>
      <rect x="24" y="-14" width="5" height="14" rx="2" fill="url(#vo-bar)" class="vo-bar-eq" style="animation: vo-eq1 0.9s ease-in-out infinite 0.3s;"/>
      <rect x="32" y="-14" width="5" height="14" rx="2" fill="url(#vo-bar)" class="vo-bar-eq" style="animation: vo-eq2 0.9s ease-in-out infinite 0.15s;"/>
    </g>
  </g>

  <!-- ============ BOTTOM-RIGHT: OUTCOME ROUTING ============ -->
  <g class="vo-card-g2" transform="translate(460,330)" style="animation-delay:-4.5s">
    <rect width="170" height="120" rx="14" fill="url(#vo-card)" stroke="#10b981" stroke-opacity="0.35"/>
    <rect width="170" height="26" rx="14" fill="url(#vo-card-head)"/>
    <rect y="14" width="170" height="12" fill="url(#vo-card-head)"/>
    <path d="M11 13 h6 l3 -4 3 8 3 -4 h4" fill="none" stroke="#34d399" stroke-width="1.6" stroke-linecap="round" stroke-linejoin="round"/>
    <text x="34" y="17" class="vo-label" font-size="9">OUTCOME ROUTING</text>

    <!-- row 1: Appointment booked -->
    <g transform="translate(12,36)">
      <circle cx="6" cy="9" r="6" fill="#10b981" fill-opacity="0.2" stroke="#34d399" stroke-opacity="0.6"/>
      <path d="M3 9 l2 2 4 -4.5" fill="none" stroke="#5eead4" stroke-width="1.6" stroke-linecap="round" stroke-linejoin="round"/>
      <text x="18" y="12" class="vo-wht" font-size="8.5">Appointment booked</text>
      <rect x="118" y="2.5" width="34" height="13" rx="6.5" fill="#34d399" fill-opacity="0.18"/>
      <text x="135" y="11.5" font-family="Segoe UI,Arial" font-size="7" fill="#a7f3d0" text-anchor="middle">DONE</text>
    </g>
    <!-- row 2: Qualified -> CRM -->
    <g transform="translate(12,62)">
      <circle cx="6" cy="9" r="6" fill="#10b981" fill-opacity="0.2" stroke="#34d399" stroke-opacity="0.6"/>
      <rect x="3" y="6" width="6" height="6" rx="1" fill="none" stroke="#5eead4" stroke-width="1.4"/>
      <text x="18" y="12" class="vo-wht" font-size="8.5">Qualified &#8594; CRM</text>
      <rect x="118" y="2.5" width="34" height="13" rx="6.5" fill="#5eead4" fill-opacity="0.16"/>
      <text x="135" y="11.5" font-family="Segoe UI,Arial" font-size="7" fill="#a7f3d0" text-anchor="middle">SYNC</text>
    </g>
    <!-- row 3: Transfer to human -->
    <g transform="translate(12,88)">
      <circle cx="6" cy="9" r="6" fill="#f59e0b" fill-opacity="0.18" stroke="#fbbf24" stroke-opacity="0.5"/>
      <circle cx="6" cy="6.5" r="2" fill="none" stroke="#fcd34d" stroke-width="1.3"/>
      <path d="M2.5 12 a3.5 3 0 0 1 7 0" fill="none" stroke="#fcd34d" stroke-width="1.3"/>
      <text x="18" y="12" class="vo-wht" font-size="8.5">Transfer to human</text>
      <rect x="116" y="2.5" width="36" height="13" rx="6.5" fill="#f59e0b" fill-opacity="0.14"/>
      <text x="134" y="11.5" font-family="Segoe UI,Arial" font-size="7" fill="#fcd34d" text-anchor="middle">LIVE</text>
    </g>
  </g>

  <!-- ============ CENTRAL HUB ============ -->
  <g transform="translate(400,250)">
    <!-- outer soft glow -->
    <circle r="80" fill="url(#vo-hub-glow)"/>
    <!-- expanding pulse rings -->
    <circle class="vo-ring" style="animation: vo-pulse 3s ease-out infinite;"/>
    <circle class="vo-ring" style="animation: vo-pulse 3s ease-out infinite 1s;"/>
    <circle class="vo-ring" style="animation: vo-pulse 3s ease-out infinite 2s;"/>
    <!-- rotating dashed orbit ring -->
    <circle r="46" fill="none" stroke="#5eead4" stroke-opacity="0.5" stroke-width="1.6" stroke-dasharray="6 10" style="transform-origin:center; animation: vo-spin 14s linear infinite;"/>
    <circle r="56" fill="none" stroke="#34d399" stroke-opacity="0.22" stroke-width="1" stroke-dasharray="2 8" style="transform-origin:center; animation: vo-spin 22s linear infinite reverse;"/>
    <!-- orbit dot -->
    <g style="transform-origin:center; animation: vo-spin 14s linear infinite;">
      <circle cx="46" cy="0" r="3.2" fill="#5eead4" filter="url(#vo-glow)"/>
    </g>
    <!-- hub body -->
    <g style="transform-origin:center; animation: vo-hubpulse 3s ease-in-out infinite;">
      <circle r="34" fill="url(#vo-hub)" filter="url(#vo-softglow)"/>
      <circle r="34" fill="none" stroke="#a7f3d0" stroke-opacity="0.7" stroke-width="1.4"/>
      <!-- phone/handset glyph -->
      <path d="M-11 -12 c-3 0 -5 2 -5 5 c0 16 13 29 29 29 c3 0 5 -2 5 -5 l0 -7 c0 -2 -1.4 -3.6 -3.4 -3.9 l-7.2 -1.2 c-1.8 -0.3 -3.6 0.5 -4.6 2 l-1.4 2.1 c-4.5 -2.4 -8.2 -6.1 -10.6 -10.6 l2.1 -1.4 c1.5 -1 2.3 -2.8 2 -4.6 l-1.2 -7.2 c-0.3 -2 -1.9 -3.4 -3.9 -3.4 z" fill="#053a2c"/>
    </g>
    <!-- label -->
    <text y="68" text-anchor="middle" class="vo-label" font-size="11" filter="url(#vo-glow)">VOICE CORE</text>
  </g>

  <!-- ============ BOTTOM STATS STRIP ============ -->
  <g transform="translate(400,480)" text-anchor="middle">
    <rect x="-205" y="-15" width="410" height="26" rx="13" fill="#062018" stroke="#10b981" stroke-opacity="0.25"/>
    <text x="0" y="3" font-family="Segoe UI,Arial" font-size="10" font-weight="700" letter-spacing="1.2" fill="#7fe6c9">
      <tspan fill="#5eead4">24/7 COVERAGE</tspan><tspan fill="#2c6f5c">  ·  </tspan><tspan fill="#5eead4">96% QA SCORE</tspan><tspan fill="#2c6f5c">  ·  </tspan><tspan fill="#5eead4">AUTO ROUTING</tspan>
    </text>
  </g>
</svg>
